<?xml version="1.0" encoding="utf-8"?>
<!-- Generator: Adobe Illustrator 27.6.1, SVG Export Plug-In . SVG Version: 6.00 Build 0)  -->
<svg version="1.1" id="Camada_1" xmlns="http://www.w3.org/2000/svg" xmlns:xlink="http://www.w3.org/1999/xlink" x="0px" y="0px"
	 viewBox="0 0 542.7 115.7" style="enable-background:new 0 0 542.7 115.7;" xml:space="preserve">
<style type="text/css">
	.st0{fill:#FFED00;}
</style>
<g id="Camada_1_00000181781796791248143210000012359375356141512370_">
</g>
<g id="Camada_3">
</g>
<g id="Camada_2_00000139264960200972111740000016820914130636617616_">
	<g>
		<path class="st0" d="M444.4,23.7l-8.2,30.8h35.2c3,0,4.8-0.5,7.1-2.2c2.1-1.6,3.2-2.9,3.9-5.6l2.6-10c0.8-2.9-0.3-5.5-2.5-8.2
			c-2.6-3.3-5.6-4.8-9.3-4.8L444.4,23.7L444.4,23.7z M401.8,2.5h118.9c5.2,0,8.9,2.3,13,6.5c6.8,6.9,6.6,14.9,4.5,23l-6.9,26.9
			c-1.5,6.1-2.3,10-6.4,14.3c-5.3,5.7-10.6,7.4-19.1,7.4h-76.6c-2.1,11.3-5.7,17.6-14.1,24.3c-7.6,6-13.4,8.7-23.9,8.7h-17.6
			L401.8,2.5L401.8,2.5z"/>
		<path class="st0" d="M282.6,2.5h45.2l-19.4,77.4c-2.9,11.5-7.5,18.1-16.2,25.8c-5.4,4.7-22.2,10.2-38,6.9l-40.4-58l-6.3,25.4
			c-2.8,11.3-7.5,18.1-16.3,25.8c-5.3,4.7-22.2,10.2-38,6.9l28.4-110h45.2l41.7,53.7l0,0L282.6,2.5L282.6,2.5z"/>
		<path class="st0" d="M314.2,112.5l28-110h45.2L368,79.8c-2.9,11.5-7.5,18.1-16.2,25.8C346.4,110.4,330,115.9,314.2,112.5
			L314.2,112.5z"/>
		<path class="st0" d="M69.4,2.2H22L4.4,69.3c-2.7,10.2-1.1,19.2,8.8,28.8c11,10.7,30.3,15,49.2,15h34.3c17.2,0,27.9-3.2,39-14.2
			c6.8-6.8,9.8-12,12.3-21.7l19.4-75.1h-48.6l-14.4,54.2c-3.6,17.1-6.6,20.9-29.2,20.9c-14.2,0-22.1-11.7-19.8-20.9L69.4,2.2
			L69.4,2.2z"/>
	</g>
</g>
</svg>
